<svg width="818" height="818" viewBox="0 0 818 818" fill="none" xmlns="http://www.w3.org/2000/svg">
  <g transform="translate(0 190)">
    <rect x="308" y="316" width="122" height="122" rx="20" fill="#66BF45"/>
    <rect x="154" y="316" width="122" height="122" rx="20" fill="#66BF45"/>
    <rect y="316" width="122" height="122" rx="20" fill="#66BF45"/>
    <rect x="154" y="158" width="122" height="122" rx="20" fill="#66BF45"/>
    <rect x="308" y="158" width="122" height="122" rx="20" fill="#66BF45"/>
    <rect x="308" width="122" height="122" rx="20" fill="#66BF45"/>
    <path d="M482 316H698.914C715.224 316 724.676 334.472 715.134 347.7L655.987 429.7C652.227 434.912 646.193 438 639.766 438H482C470.954 438 462 429.046 462 418V336C462 324.954 470.954 316 482 316Z" fill="#66BF45"/>
    <path d="M482 158H772.331C778.721 158 784.726 161.053 788.491 166.217L808.944 194.267C814.047 201.264 814.066 210.75 808.992 217.768L769.988 271.718C766.227 276.919 760.199 280 753.78 280H482C470.954 280 462 271.046 462 260V178C462 166.954 470.954 158 482 158Z" fill="#66BF45"/>
    <path d="M482 0H656.696C663.079 0 669.078 3.04659 672.844 8.20018L732.763 90.2002C742.419 103.415 732.981 122 716.615 122H482C470.954 122 462 113.046 462 102V20C462 8.9543 470.954 0 482 0Z" fill="#66BF45"/>
  </g>
</svg>
